<?xml version="1.0" encoding="UTF-8" standalone="no"?>
<svg
   xmlns:dc="http://purl.org/dc/elements/1.1/"
   xmlns:cc="http://creativecommons.org/ns#"
   xmlns:rdf="http://www.w3.org/1999/02/22-rdf-syntax-ns#"
   xmlns:svg="http://www.w3.org/2000/svg"
   xmlns="http://www.w3.org/2000/svg"
   xmlns:sodipodi="http://sodipodi.sourceforge.net/DTD/sodipodi-0.dtd"
   xmlns:inkscape="http://www.inkscape.org/namespaces/inkscape"
   id="svg8"
   version="1.1"
   viewBox="0 0 210 297"
   height="100"
   width="100"
   sodipodi:docname="black_hole.svg"
   inkscape:version="0.92.4 (5da689c313, 2019-01-14)">
  <sodipodi:namedview
     pagecolor="#ffffff"
     bordercolor="#666666"
     borderopacity="1"
     objecttolerance="10"
     gridtolerance="10"
     guidetolerance="10"
     inkscape:pageopacity="0"
     inkscape:pageshadow="2"
     inkscape:window-width="1858"
     inkscape:window-height="1057"
     id="namedview12"
     showgrid="false"
     inkscape:zoom="1"
     inkscape:cx="-3.3133923"
     inkscape:cy="42.772283"
     inkscape:window-x="1974"
     inkscape:window-y="-8"
     inkscape:window-maximized="1"
     inkscape:current-layer="layer1" />
  <defs
     id="defs2">
    <pattern
       id="WMFhbasepattern"
       patternUnits="userSpaceOnUse"
       width="6"
       height="6"
       x="0"
       y="0" />
  </defs>
  <metadata
     id="metadata5">
    <rdf:RDF>
      <cc:Work
         rdf:about="">
        <dc:format>image/svg+xml</dc:format>
        <dc:type
           rdf:resource="http://purl.org/dc/dcmitype/StillImage" />
        <dc:title />
      </cc:Work>
    </rdf:RDF>
  </metadata>
  <g
     id="layer1"
     transform="matrix(16.790112,0,0,16.747653,-349.46135,-2293.2258)">
    <g
       style="fill:#ff6600;stroke:#ff6600;stroke-opacity:1;stroke-width:1.00009394;stroke-miterlimit:4;stroke-dasharray:none"
       transform="matrix(0.26458333,0,0,0.26458333,18.502086,136.28121)"
       id="g837">
      <path
         style="fill:#ff6600;fill-opacity:1;fill-rule:evenodd;stroke:#ff6600;stroke-opacity:1;stroke-width:1.00009394;stroke-miterlimit:4;stroke-dasharray:none"
         d="m 61.864727,30.010435 v 1.000348 0 h 0.997818 v 1.000347 h 0.997819 v 0 l 0.997818,1.000348 v 0 0 0 1.000348 0 1.000348 0 H 65.856 v 1.000348 0 0 0 1.000348 0 1.000347 0 0 1.000348 0 1.000348 0 0 1.000348 0 0 0 1.000348 0 1.000348 0 0 1.000347 0 0 1.000348 0 0 L 64.858182,46.016 v 0 1.000348 0 0 0 1.000348 0 0 l -0.997818,1.000347 v 0 1.000348 0 0 1.000348 0 h -0.997819 v 1.000348 0 1.000348 0 0 h -0.997818 v 1.000348 0 0 1.000347 0 L 55.877818,50.017391 50.888727,46.016 v 0 0 h 0.997818 v -1.000348 0 0 0 0 l 0.997819,-1.000348 v 0 0 0 0 -1.000347 0 h 0.997818 v 0 0 -1.000348 0 0 0 0 L 54.88,41.014261 v 0 0 0 -1.000348 0 0 h 0.997818 v 0 -1.000348 0 0 0 0 -1.000348 h 0.997818 v 0 0 -1.000347 0 0 -1.000348 h 0.997819 v 0 0 -1.000348 0 0 0 0 -1.000348 h 0.997818 v 0 -1.000348 0 0 l 0.997818,-1.000348 v 0 0 l 0.997818,-1.000347 v 0 0 z"
         id="path818"
         inkscape:connector-curvature="0" />
      <path
         style="fill:#ff6600;fill-opacity:1;fill-rule:evenodd;stroke:#ff6600;stroke-opacity:1;stroke-width:1.00009394;stroke-miterlimit:4;stroke-dasharray:none"
         d="m 55.877818,50.017391 5.986909,5.001739 h -0.997818 v 0 1.000348 l -0.997818,1.000348 h -0.997818 v 1.000348 0 l -0.997818,1.000348 v 0 l -0.997819,1.000348 v 0 l -0.997818,1.000347 v 0 L 54.88,62.021565 v 0 h -0.997818 l -0.997818,1.000348 v 0 l -0.997819,1.000348 v 0 h -0.997818 v 1.000348 h -0.997818 -0.997818 v 1.000348 h -0.997818 -0.997818 v 1.000347 h -0.997819 v 0 H 44.901818 L 43.904,68.023652 v 0 h -0.997818 -0.997818 -0.997819 v 0 L 39.912727,69.024 h -0.997818 -0.997818 -0.997818 -0.997818 -0.997819 v 0 h -0.997818 v 0 H 32.928 31.930182 30.932364 29.934545 28.936727 27.938909 l -0.997818,-1.000348 v 0 h -0.997818 -0.997818 v 0 H 23.947636 L 22.949818,67.023304 H 21.952 20.954182 v -1.000347 h -0.997818 l -0.997819,-1.000348 h -0.997818 -0.997818 v -1.000348 0 H 15.965091 L 14.967273,63.021913 H 13.969455 V 62.021565 H 12.971636 L 10.976,61.021217 V 60.02087 l 3.991273,-5.00174 3.991272,-5.001739 h 0.997819 l 0.997818,1.000348 v 0 H 21.952 v 0 l 0.997818,1.000348 v 0 0 h 0.997818 v 0 l 0.997819,1.000348 v 0 h 0.997818 v 0 h 0.997818 v 0 h 0.997818 v 1.000348 h 0.997818 v 0 0 h 0.997818 v 0 h 0.997819 v 0 h 0.997818 v 0 H 32.928 v 0 h 0.997818 0.997818 v 0 h 0.997819 v 0 h 0.997818 v 0 l 0.997818,-1.000348 v 0 0 h 0.997818 v 0 h 0.997818 v 0 h 0.997818 v -1.000348 0 h 0.997819 v 0 h 0.997818 v 0 0 -1.000348 H 43.904 v 0 h 0.997818 v 0 -1.000348 h 0.997818 v 0 h 0.997819 v -1.000348 h 0.997818 v 0 l 0.997818,-1.000347 v 0 0 0 l 0.997818,-1.000348 v 0 L 50.888727,46.016 Z"
         id="path820"
         inkscape:connector-curvature="0" />
      <path
         style="fill:#ff6600;fill-opacity:1;fill-rule:evenodd;stroke:#ff6600;stroke-opacity:1;stroke-width:1.00009394;stroke-miterlimit:4;stroke-dasharray:none"
         d="M 14.967273,55.01913 10.976,60.02087 v 0 L 9.9781818,59.020522 v 0 H 8.9803636 V 58.020174 L 7.9825455,57.019826 v 0 L 6.9847273,56.019478 V 55.01913 H 5.9869091 V 54.018783 L 4.9890909,53.018435 v 0 L 3.9912727,52.018087 V 51.017739 L 2.9934545,50.017391 v 0 -1.000348 L 1.9956364,48.016696 V 47.016348 46.016 H 0.99781818 v -1.000348 -1.000348 -1.000347 0 -1.000348 H 0 v -1.000348 -1.000348 -1.000348 -1.000348 0 -1.000347 -1.000348 -1.000348 0 -1.000348 -1.000348 0 -1.000348 -1.000347 -1.000348 -1.000348 h 0.99781818 v -1.000348 -1.000348 0 -1.000348 0 L 1.9956364,25.008696 V 24.008348 23.008 h 0.9978181 v -1.000348 -1.000348 l 0.9978182,-1.000347 v 0 -1.000348 L 4.9890909,18.006261 V 17.005913 H 5.9869091 V 16.005565 H 6.9847273 V 15.005217 L 7.9825455,14.00487 v 0 L 8.9803636,13.004522 10.976,14.00487 l 1.995636,2.000695 -0.997818,1.000348 v 0 1.000348 H 10.976 v 1.000348 1.000348 H 9.9781818 v 1.000347 1.000348 0 V 23.008 H 8.9803636 v 1.000348 1.000348 0 1.000347 1.000348 0 1.000348 0 1.000348 0 1.000348 0 1.000348 0 1.000347 1.000348 0 1.000348 0 0 1.000348 1.000348 h 0.9978182 v 1.000348 0 1.000347 0 1.000348 L 10.976,40.013913 v 0 0 0 1.000348 l 0.997818,1.000348 v 0 1.000348 0 h 0.997818 v 1.000347 0 l 0.997819,1.000348 v 0 0 L 14.967273,46.016 v 0 1.000348 h 0.997818 v 0 1.000348 h 0.997818 v 0 l 0.997818,1.000347 v 0 0 h 0.997818 v 1.000348 0 z"
         id="path822"
         inkscape:connector-curvature="0" />
      <path
         style="fill:#ff6600;fill-opacity:1;fill-rule:evenodd;stroke:#ff6600;stroke-opacity:1;stroke-width:1.00009394;stroke-miterlimit:4;stroke-dasharray:none"
         d="M 10.976,14.00487 8.9803636,13.004522 v 0 0 L 9.9781818,12.004174 V 11.003826 H 10.976 l 0.997818,-1.000348 v 0 h 0.997818 V 9.0031304 h 0.997819 l 0.997818,-1.0003478 v 0 0 l 0.997818,-1.0003478 h 0.997818 v 0 L 17.960727,6.002087 v 0 h 0.997818 0.997819 V 5.0017391 h 0.997818 0.997818 0.997818 v 0 -1.0003478 h 0.997818 0.997819 v 0 h 0.997818 0.997818 V 3.0010435 h 0.997818 0.997818 0.997818 v 0 h 0.997819 0.997818 v 0 H 32.928 33.925818 v 0 h 0.997818 0.997819 l 0.997818,1.0003478 v 0 h 0.997818 v 0 h 0.997818 v 0 h 0.997818 l 0.997818,1.0003478 v 0 h 0.997819 0.997818 v 0 L 43.904,6.002087 h 0.997818 v 0 l 0.997818,1.0003478 h 0.997819 v 0 l 0.997818,1.0003478 h 0.997818 v 0 l 0.997818,1.0003478 h 0.997818 v 1.0003476 0 -1.0003476 H 49.890909 48.893091 V 8.0027826 H 47.895273 L 46.897455,7.0024348 v 0 H 45.899636 L 44.901818,6.002087 v 0 H 43.904 42.906182 V 5.0017391 h -0.997818 -0.997819 v 0 H 39.912727 38.914909 L 37.917091,4.0013913 v 0 0 h -0.997818 -0.997818 v 0 h -0.997819 -0.997818 v 0 H 32.928 31.930182 v 0 h -0.997818 l -0.997819,1.0003478 v 0 h -0.997818 -0.997818 v 0 H 26.941091 L 25.943273,6.002087 v 0 h -0.997818 v 0 h -0.997819 l -0.997818,1.0003478 v 0 0 H 21.952 v 1.0003478 h -0.997818 -0.997818 v 1.0003478 h -0.997819 v 0 l -0.997818,1.0003476 v 0 0 l -0.997818,1.000348 v 0 h -0.997818 v 1.000348 h -0.997818 v 1.000348 0 l -0.997818,1.000348 v 0 l -0.997819,1.000347 v 0 1.000348 0 z"
         id="path824"
         inkscape:connector-curvature="0" />
    </g>
  </g>
</svg>
