<?xml version="1.0" encoding="UTF-8" standalone="no"?>
<svg
   xmlns:dc="http://purl.org/dc/elements/1.1/"
   xmlns:cc="http://creativecommons.org/ns#"
   xmlns:rdf="http://www.w3.org/1999/02/22-rdf-syntax-ns#"
   xmlns:svg="http://www.w3.org/2000/svg"
   xmlns="http://www.w3.org/2000/svg"
   version="1.0"
   width="300"
   height="300"
   id="svg3810">
  <metadata
     id="metadata3814">
    <rdf:RDF>
      <cc:Work
         rdf:about="">
        <dc:format>image/svg+xml</dc:format>
        <dc:type
           rdf:resource="http://purl.org/dc/dcmitype/StillImage" />
        <dc:title></dc:title>
      </cc:Work>
    </rdf:RDF>
  </metadata>
  <defs
     id="defs3714">
    <pattern
       id="WMFhbasepattern"
       patternUnits="userSpaceOnUse"
       width="6"
       height="6"
       x="0"
       y="0" />
  </defs>
  <path
     style="fill:#999999;fill-opacity:1;fill-rule:evenodd;stroke:none;stroke-width:0.81373191"
     d="m 150,299.86983 -7.80573,-0.2602 -7.54552,-0.52038 -7.54555,-1.04076 -7.28534,-1.30095 -7.28534,-1.56114 -7.02515,-2.08154 -7.025157,-2.34171 -6.76495,-2.60191 -6.50478,-3.12229 -6.50476,-3.38247 -6.244581,-3.38248 -6.244582,-3.90286 -5.724198,-4.42325 -5.724198,-4.42324 -5.464006,-4.68343 -5.203816,-4.94363 -4.943625,-5.20382 -4.683435,-5.46399 -4.423244,-5.72421 -4.423243,-5.72419 -3.902862,-6.24458 -3.38248,-6.24458 -3.382481,-6.50476 -3.122291,-6.50477 -2.6019076,-6.76496 -2.341717,-7.02516 -2.081527,-7.02514 -1.561144,-7.28534 -1.300954,-7.28534 -1.04076402,-7.54554 -0.520382,-7.54552 -0.26019,-7.80572 0.26019,-7.54554 0.520382,-7.80572 1.04076402,-7.28534 1.300954,-7.54554 1.561144,-7.02514 2.081527,-7.28534 2.341717,-6.764972 2.6019076,-7.02514 3.122291,-6.50476 3.382481,-6.50478 3.38248,-6.24458 3.902862,-5.98438 4.423243,-5.98439 4.423244,-5.7242 4.683435,-5.464001 4.943625,-5.203815 5.203816,-4.943625 5.464006,-4.683432 5.724198,-4.423243 5.724198,-4.163051 6.244582,-3.902862 6.244581,-3.64267 6.50476,-3.38248 6.50478,-3.122288 6.76495,-2.6019077 7.025157,-2.3417169 7.02515,-2.081525 7.28534,-1.561145 7.28534,-1.300953 7.54555,-1.040764 7.54552,-0.52038 7.80573,-0.260191 7.80572,0.260191 7.54553,0.52038 7.54554,1.040764 7.28534,1.300953 7.28534,1.561145 7.02515,2.081525 7.02516,2.3417169 6.76495,2.6019077 6.76497,3.122288 6.24457,3.38248 6.50478,3.64267 5.98438,3.902862 5.98439,4.163051 5.46401,4.423243 5.46401,4.683432 5.20382,4.943625 4.94362,5.203815 4.68344,5.464001 4.42324,5.7242 4.42325,5.98439 3.90285,5.98438 3.38248,6.24458 3.38248,6.50478 3.12229,6.50476 2.60191,7.02514 2.34172,6.764972 2.08152,7.28534 1.56114,7.02514 1.30097,7.54554 1.04076,7.28534 0.52038,7.80572 0.2602,7.54554 -0.2602,7.80572 -0.52038,7.54552 -1.04076,7.54554 -1.30097,7.28534 -1.56114,7.28534 -2.08152,7.02514 -2.34172,7.02516 -2.60191,6.76496 -3.12229,6.50477 -3.38248,6.50476 -3.38248,6.24458 -3.90285,6.24458 -4.42325,5.72419 -4.42324,5.72421 -4.68344,5.46399 -4.94362,5.20382 -5.20382,4.94363 -5.46401,4.68343 -5.46401,4.42324 -5.98439,4.42325 -5.98438,3.90286 -6.50478,3.38248 -6.24457,3.38247 -6.76497,3.12229 -6.76495,2.60191 -7.02516,2.34171 -7.02515,2.08154 -7.28534,1.56114 -7.28534,1.30095 -7.54554,1.04076 -7.54553,0.52038 z m 0,-24.97831 h -6.24459 l -6.50477,-0.52038 -6.24458,-0.78058 -6.24457,-1.30095 -5.9844,-1.30096 -5.72418,-1.56114 -5.9844,-2.08153 -5.7242,-2.34171 -5.463997,-2.34172 -5.20382,-2.86209 -5.20381,-2.8621 -5.20382,-3.38248 -4.943625,-3.64267 -4.683435,-3.64267 -4.423243,-3.90287 -4.423244,-4.16305 -4.163053,-4.16304 -3.902861,-4.68344 -3.642672,-4.68343 -3.64267,-4.94363 -3.122291,-4.94362 -3.12229,-5.20381 -2.601908,-5.46401 -2.601907,-5.46401 -2.341717,-5.72419 -1.821336,-5.98439 -1.821336,-5.72421 -1.300954,-5.98438 -1.300954,-6.24458 -0.780572,-6.24457 -0.260191,-6.24457 -0.26019,-6.50477 0.26019,-6.24459 0.260191,-6.50476 0.780572,-6.24458 1.300954,-5.98439 1.300954,-6.24457 1.821336,-5.72419 1.821336,-5.9844 2.341717,-5.464 2.601907,-5.724202 2.601908,-5.20382 3.12229,-5.20381 3.122291,-5.20381 3.64267,-4.94362 3.642672,-4.68344 3.902861,-4.42324 4.163053,-4.42325 4.423244,-4.16305 4.423243,-3.90286 4.683435,-3.64267 4.943625,-3.64267 5.20382,-3.122289 5.20381,-3.122288 5.20382,-2.601908 5.463997,-2.601907 5.7242,-2.341716 5.9844,-1.821336 5.72418,-1.821335 5.9844,-1.300953 6.24457,-1.300955 6.24458,-0.780571 6.50477,-0.260191 6.24459,-0.260191 6.50476,0.260191 6.24459,0.260191 6.24458,0.780571 6.24458,1.300955 5.98439,1.300953 5.98438,1.821335 5.7242,1.821336 5.7242,2.341716 5.464,2.601907 5.46401,2.601908 5.20382,3.122288 4.94362,3.122289 4.94362,3.64267 4.68344,3.64267 4.68344,3.90286 4.16304,4.16305 4.16306,4.42325 3.90286,4.42324 3.90286,4.68344 3.38249,4.94362 3.38248,5.20381 2.86209,5.20381 2.8621,5.20382 2.34172,5.724202 2.34172,5.464 2.08153,5.9844 1.56114,5.72419 1.30095,6.24457 1.30096,5.98439 0.78058,6.24458 0.52037,6.50476 v 6.24459 6.50477 l -0.52037,6.24457 -0.78058,6.24457 -1.30096,6.24458 -1.30095,5.98438 -1.56114,5.72421 -2.08153,5.98439 -2.34172,5.72419 -2.34172,5.46401 -2.8621,5.46401 -2.86209,5.20381 -3.38248,4.94362 -3.38249,4.94363 -3.90286,4.68343 -3.90286,4.68344 -4.16306,4.16304 -4.16304,4.16305 -4.68344,3.90287 -4.68344,3.64267 -4.94362,3.64267 -4.94362,3.38248 -5.20382,2.8621 -5.46401,2.86209 -5.464,2.34172 -5.7242,2.34171 -5.7242,2.08153 -5.98438,1.56114 -5.98439,1.30096 -6.24458,1.30095 -6.24458,0.78058 -6.24459,0.52038 z"
     id="path3716" />
  <path
     style="fill:none;stroke:#000000;stroke-width:0.26019078px;stroke-linecap:round;stroke-linejoin:round;stroke-miterlimit:4;stroke-dasharray:none;stroke-opacity:1"
     d="m 150,299.86983 -7.80573,-0.2602 -7.54552,-0.52038 -7.54555,-1.04076 -7.28534,-1.30095 -7.28534,-1.56114 -7.02515,-2.08154 -7.025157,-2.34171 -6.76495,-2.60191 -6.50478,-3.12229 -6.50476,-3.38247 -6.244581,-3.38248 -6.244582,-3.90286 -5.724198,-4.42325 -5.724198,-4.42324 -5.464006,-4.68343 -5.203816,-4.94363 -4.943625,-5.20382 -4.683435,-5.46399 -4.423244,-5.72421 -4.423243,-5.72419 -3.902862,-6.24458 -3.38248,-6.24458 -3.382481,-6.50476 -3.122291,-6.50477 -2.6019076,-6.76496 -2.341717,-7.02516 -2.081527,-7.02514 -1.561144,-7.28534 -1.300954,-7.28534 -1.04076402,-7.54554 -0.520382,-7.54552 -0.26019,-7.80572 0.26019,-7.54554 0.520382,-7.80572 1.04076402,-7.28534 1.300954,-7.54554 1.561144,-7.02514 2.081527,-7.28534 2.341717,-6.764972 2.6019076,-7.02514 3.122291,-6.50476 3.382481,-6.50478 3.38248,-6.24458 3.902862,-5.98438 4.423243,-5.98439 4.423244,-5.7242 4.683435,-5.464001 4.943625,-5.203815 5.203816,-4.943625 5.464006,-4.683432 5.724198,-4.423243 5.724198,-4.163051 6.244582,-3.902862 6.244581,-3.64267 6.50476,-3.38248 6.50478,-3.122288 6.76495,-2.6019077 7.025157,-2.3417169 7.02515,-2.081525 7.28534,-1.561145 7.28534,-1.300953 7.54555,-1.040764 7.54552,-0.52038 7.80573,-0.260191 7.80572,0.260191 7.54553,0.52038 7.54554,1.040764 7.28534,1.300953 7.28534,1.561145 7.02515,2.081525 7.02516,2.3417169 6.76495,2.6019077 6.76497,3.122288 6.24457,3.38248 6.50478,3.64267 5.98438,3.902862 5.98439,4.163051 5.46401,4.423243 5.46401,4.683432 5.20382,4.943625 4.94362,5.203815 4.68344,5.464001 4.42324,5.7242 4.42325,5.98439 3.90285,5.98438 3.38248,6.24458 3.38248,6.50478 3.12229,6.50476 2.60191,7.02514 2.34172,6.764972 2.08152,7.28534 1.56114,7.02514 1.30097,7.54554 1.04076,7.28534 0.52038,7.80572 0.2602,7.54554 -0.2602,7.80572 -0.52038,7.54552 -1.04076,7.54554 -1.30097,7.28534 -1.56114,7.28534 -2.08152,7.02514 -2.34172,7.02516 -2.60191,6.76496 -3.12229,6.50477 -3.38248,6.50476 -3.38248,6.24458 -3.90285,6.24458 -4.42325,5.72419 -4.42324,5.72421 -4.68344,5.46399 -4.94362,5.20382 -5.20382,4.94363 -5.46401,4.68343 -5.46401,4.42324 -5.98439,4.42325 -5.98438,3.90286 -6.50478,3.38248 -6.24457,3.38247 -6.76497,3.12229 -6.76495,2.60191 -7.02516,2.34171 -7.02515,2.08154 -7.28534,1.56114 -7.28534,1.30095 -7.54554,1.04076 -7.54553,0.52038 -7.80572,0.2602"
     id="path3718" />
  <path
     style="fill:none;stroke:#000000;stroke-width:0.26019078px;stroke-linecap:round;stroke-linejoin:round;stroke-miterlimit:4;stroke-dasharray:none;stroke-opacity:1"
     d="m 150,274.89152 h -6.24459 l -6.50477,-0.52038 -6.24458,-0.78058 -6.24457,-1.30095 -5.9844,-1.30096 -5.72418,-1.56114 -5.9844,-2.08153 -5.7242,-2.34171 -5.463997,-2.34172 -5.20382,-2.86209 -5.20381,-2.8621 -5.20382,-3.38248 -4.943625,-3.64267 -4.683435,-3.64267 -4.423243,-3.90287 -4.423244,-4.16305 -4.163053,-4.16304 -3.902861,-4.68344 -3.642672,-4.68343 -3.64267,-4.94363 -3.122291,-4.94362 -3.12229,-5.20381 -2.601908,-5.46401 -2.601907,-5.46401 -2.341717,-5.72419 -1.821336,-5.98439 -1.821336,-5.72421 -1.300954,-5.98438 -1.300954,-6.24458 -0.780572,-6.24457 -0.260191,-6.24457 -0.26019,-6.50477 0.26019,-6.24459 0.260191,-6.50476 0.780572,-6.24458 1.300954,-5.98439 1.300954,-6.24457 1.821336,-5.72419 1.821336,-5.9844 2.341717,-5.464 2.601907,-5.724202 2.601908,-5.20382 3.12229,-5.20381 3.122291,-5.20381 3.64267,-4.94362 3.642672,-4.68344 3.902861,-4.42324 4.163053,-4.42325 4.423244,-4.16305 4.423243,-3.90286 4.683435,-3.64267 4.943625,-3.64267 5.20382,-3.122289 5.20381,-3.122288 5.20382,-2.601908 5.463997,-2.601907 5.7242,-2.341716 5.9844,-1.821336 5.72418,-1.821335 5.9844,-1.300953 6.24457,-1.300955 6.24458,-0.780571 6.50477,-0.260191 6.24459,-0.260191 6.50476,0.260191 6.24459,0.260191 6.24458,0.780571 6.24458,1.300955 5.98439,1.300953 5.98438,1.821335 5.7242,1.821336 5.7242,2.341716 5.464,2.601907 5.46401,2.601908 5.20382,3.122288 4.94362,3.122289 4.94362,3.64267 4.68344,3.64267 4.68344,3.90286 4.16304,4.16305 4.16306,4.42325 3.90286,4.42324 3.90286,4.68344 3.38249,4.94362 3.38248,5.20381 2.86209,5.20381 2.8621,5.20382 2.34172,5.724202 2.34172,5.464 2.08153,5.9844 1.56114,5.72419 1.30095,6.24457 1.30096,5.98439 0.78058,6.24458 0.52037,6.50476 v 6.24459 6.50477 l -0.52037,6.24457 -0.78058,6.24457 -1.30096,6.24458 -1.30095,5.98438 -1.56114,5.72421 -2.08153,5.98439 -2.34172,5.72419 -2.34172,5.46401 -2.8621,5.46401 -2.86209,5.20381 -3.38248,4.94362 -3.38249,4.94363 -3.90286,4.68343 -3.90286,4.68344 -4.16306,4.16304 -4.16304,4.16305 -4.68344,3.90287 -4.68344,3.64267 -4.94362,3.64267 -4.94362,3.38248 -5.20382,2.8621 -5.46401,2.86209 -5.464,2.34172 -5.7242,2.34171 -5.7242,2.08153 -5.98438,1.56114 -5.98439,1.30096 -6.24458,1.30095 -6.24458,0.78058 -6.24459,0.52038 H 150"
     id="path3720" />
  <path
     style="fill:#c8beb7;fill-opacity:1;fill-rule:evenodd;stroke:none;stroke-width:0.81373191"
     d="m 150,175.23846 h -2.60191 l -2.34172,-0.52038 -2.60191,-0.52038 -2.34172,-0.78057 -2.08152,-1.30096 -2.08153,-1.04075 -1.82133,-1.56115 -1.82134,-1.56114 -1.82133,-1.82134 -1.30096,-2.08153 -1.30095,-2.08152 -1.04077,-2.08153 -0.78056,-2.34172 -0.78058,-2.34171 -0.26019,-2.60191 -0.26019,-2.6019 0.26019,-2.60191 0.26019,-2.34172 0.78058,-2.60191 0.78056,-2.34171 1.04077,-2.08153 1.30095,-2.08152 1.30096,-1.82134 1.82133,-1.82134 1.82134,-1.82134 1.82133,-1.30095 2.08153,-1.30095 2.08152,-1.04076 2.34172,-0.78057 2.60191,-0.78058 2.34172,-0.26019 2.60191,-0.26019 2.6019,0.26019 2.60192,0.26019 2.34171,0.78058 2.34172,0.78057 2.08152,1.04076 2.08153,1.30095 2.08152,1.30095 1.82134,1.82134 1.56114,1.82134 1.56115,1.82134 1.04076,2.08152 1.30096,2.08153 0.78057,2.34171 0.52038,2.60191 0.52039,2.34172 v 2.60191 2.6019 l -0.52039,2.60191 -0.52038,2.34171 -0.78057,2.34172 -1.30096,2.08153 -1.04076,2.08152 -1.56115,2.08153 -1.56114,1.82134 -1.82134,1.56114 -2.08152,1.56115 -2.08153,1.04075 -2.08152,1.30096 -2.34172,0.78057 -2.34171,0.52038 -2.60192,0.52038 z"
     id="path3722" />
  <path
     style="fill:#999999;stroke:#000000;stroke-width:0.26019078px;stroke-linecap:round;stroke-linejoin:round;stroke-miterlimit:4;stroke-dasharray:none;stroke-opacity:1"
     d="m 150,175.23846 h -2.60191 l -2.34172,-0.52038 -2.60191,-0.52038 -2.34172,-0.78057 -2.08152,-1.30096 -2.08153,-1.04075 -1.82133,-1.56115 -1.82134,-1.56114 -1.82133,-1.82134 -1.30096,-2.08153 -1.30095,-2.08152 -1.04077,-2.08153 -0.78056,-2.34172 -0.78058,-2.34171 -0.26019,-2.60191 -0.26019,-2.6019 0.26019,-2.60191 0.26019,-2.34172 0.78058,-2.60191 0.78056,-2.34171 1.04077,-2.08153 1.30095,-2.08152 1.30096,-1.82134 1.82133,-1.82134 1.82134,-1.82134 1.82133,-1.30095 2.08153,-1.30095 2.08152,-1.04076 2.34172,-0.78057 2.60191,-0.78058 2.34172,-0.26019 2.60191,-0.26019 2.6019,0.26019 2.60192,0.26019 2.34171,0.78058 2.34172,0.78057 2.08152,1.04076 2.08153,1.30095 2.08152,1.30095 1.82134,1.82134 1.56114,1.82134 1.56115,1.82134 1.04076,2.08152 1.30096,2.08153 0.78057,2.34171 0.52038,2.60191 0.52039,2.34172 v 2.60191 2.6019 l -0.52039,2.60191 -0.52038,2.34171 -0.78057,2.34172 -1.30096,2.08153 -1.04076,2.08152 -1.56115,2.08153 -1.56114,1.82134 -1.82134,1.56114 -2.08152,1.56115 -2.08153,1.04075 -2.08152,1.30096 -2.34172,0.78057 -2.34171,0.52038 -2.60192,0.52038 H 150"
     id="path3724" />
  <path
     style="fill:#000000;fill-opacity:1;fill-rule:evenodd;stroke:none;stroke-width:0.81373191"
     d="m 103.68603,269.42751 4.42324,1.56114 87.6843,-240.676428 -4.42324,-1.561143 z"
     id="path3726" />
  <path
     style="fill:#999999;stroke:none;stroke-width:0.26019078px;stroke-linecap:round;stroke-linejoin:round;stroke-miterlimit:4;stroke-dasharray:none;stroke-opacity:1"
     d="m 103.68603,269.42751 4.42324,1.56114 87.6843,-240.676428 -4.42324,-1.561143 -87.6843,240.676431"
     id="path3728" />
  <path
     style="fill:#ffffff;fill-opacity:1;fill-rule:evenodd;stroke:none;stroke-width:0.81373191"
     d="m 109.67043,271.50904 0.78056,0.52038 0.78058,0.78057 0.52037,0.78057 0.52039,1.04076 0.26019,0.78058 0.52039,1.04076 v 0.78057 l 0.26018,1.04077 v 1.04076 1.04076 l -0.26018,0.78057 v 1.04077 l -0.52039,0.78057 -0.26019,1.04077 -0.78058,0.78057 -0.52037,1.04075 -0.78058,0.78058 -0.78056,0.52038 -0.78058,0.52038 -0.78057,0.52038 -1.04077,0.52039 -0.78057,0.26019 -1.04076,0.26018 h -1.04076 -0.78058 -1.04077 -1.04075 l -0.78058,-0.26018 -1.040757,-0.52039 -1.04077,-0.26019 -0.78057,-0.52038 -0.78057,-0.78057 -0.78057,-0.52038 -0.78058,-0.78057 -0.52037,-1.04077 -0.52039,-0.78057 -0.26019,-0.78057 -0.52039,-1.04077 v -0.78057 l -0.26019,-1.04076 v -1.04076 -0.78057 l 0.26019,-1.04077 v -1.04076 l 0.52039,-1.04077 0.26019,-0.78056 0.78057,-0.78058 0.52039,-0.78057 0.78058,-0.78057 0.78057,-0.78058 0.78056,-0.52037 0.78057,-0.52039 1.04078,-0.52037 0.780557,-0.2602 1.04076,-0.26019 1.04077,-0.26019 h 0.78057 l 1.04077,0.26019 h 1.04076 l 0.78057,0.26019 1.04076,0.2602 1.04076,0.52037 0.78058,0.52039 z"
     id="path3730" />
  <path
     style="fill:#ffffff;stroke:none;stroke-width:0.26019078px;stroke-linecap:round;stroke-linejoin:round;stroke-miterlimit:4;stroke-dasharray:none;stroke-opacity:1"
     d="m 109.67043,271.50904 0.78056,0.52038 0.78058,0.78057 0.52037,0.78057 0.52039,1.04076 0.26019,0.78058 0.52039,1.04076 v 0.78057 l 0.26018,1.04077 v 1.04076 1.04076 l -0.26018,0.78057 v 1.04077 l -0.52039,0.78057 -0.26019,1.04077 -0.78058,0.78057 -0.52037,1.04075 -0.78058,0.78058 -0.78056,0.52038 -0.78058,0.52038 -0.78057,0.52038 -1.04077,0.52039 -0.78057,0.26019 -1.04076,0.26018 h -1.04076 -0.78058 -1.04077 -1.04075 l -0.78058,-0.26018 -1.040757,-0.52039 -1.04077,-0.26019 -0.78057,-0.52038 -0.78057,-0.78057 -0.78057,-0.52038 -0.78058,-0.78057 -0.52037,-1.04077 -0.52039,-0.78057 -0.26019,-0.78057 -0.52039,-1.04077 v -0.78057 l -0.26019,-1.04076 v -1.04076 -0.78057 l 0.26019,-1.04077 v -1.04076 l 0.52039,-1.04077 0.26019,-0.78056 0.78057,-0.78058 0.52039,-0.78057 0.78058,-0.78057 0.78057,-0.78058 0.78056,-0.52037 0.78057,-0.52039 1.04078,-0.52037 0.780557,-0.2602 1.04076,-0.26019 1.04077,-0.26019 h 0.78057 l 1.04077,0.26019 h 1.04076 l 0.78057,0.26019 1.04076,0.2602 1.04076,0.52037 0.78058,0.52039 0.78058,0.78057"
     id="path3732" />
  <path
     style="fill:#ffffff;fill-opacity:1;fill-rule:evenodd;stroke:none;stroke-width:0.81373191"
     d="m 203.07891,13.399825 0.78058,0.780572 0.52038,0.780572 0.78058,0.780573 0.26019,0.780572 0.52038,1.040763 0.26019,0.780572 0.26019,1.040762 0.2602,1.040764 v 0.780572 1.040763 l -0.2602,1.040762 -0.26019,0.780574 -0.26019,1.040762 -0.52038,1.040763 -0.52038,0.780572 -0.52039,0.780573 -0.78057,0.780572 -0.78057,0.780572 -0.78057,0.520382 -1.04077,0.52038 -0.78057,0.260191 -1.04077,0.520382 h -0.78056 l -1.04077,0.260191 h -1.04076 -1.04076 l -0.78058,-0.260191 h -1.04076 l -1.04077,-0.520382 -0.78057,-0.260191 -0.78057,-0.780571 -1.04076,-0.520382 -0.78058,-0.780572 -0.52037,-0.780572 -0.78058,-0.780573 -0.26019,-0.780571 -0.52038,-1.040764 -0.26019,-0.780571 -0.2602,-1.040764 -0.26019,-1.040763 v -0.780572 -1.040762 l 0.26019,-1.040765 0.2602,-0.780571 0.26019,-1.040763 0.52038,-0.780572 0.52038,-1.040763 0.52039,-0.780572 0.78057,-0.780573 0.78058,-0.780571 0.78056,-0.520382 1.04077,-0.520382 0.78057,-0.26019 1.04077,-0.260191 0.78056,-0.260191 1.04077,-0.260191 h 1.04076 1.04076 l 0.78058,0.260191 1.04075,0.260191 1.04077,0.260191 0.78057,0.520381 0.78058,0.520382 z"
     id="path3734" />
  <path
     style="fill:none;stroke:#000000;stroke-width:0.26019078px;stroke-linecap:round;stroke-linejoin:round;stroke-miterlimit:4;stroke-dasharray:none;stroke-opacity:1"
     d="m 203.07891,13.399825 0.78058,0.780572 0.52038,0.780572 0.78058,0.780573 0.26019,0.780572 0.52038,1.040763 0.26019,0.780572 0.26019,1.040762 0.2602,1.040764 v 0.780572 1.040763 l -0.2602,1.040762 -0.26019,0.780574 -0.26019,1.040762 -0.52038,1.040763 -0.52038,0.780572 -0.52039,0.780573 -0.78057,0.780572 -0.78057,0.780572 -0.78057,0.520382 -1.04077,0.52038 -0.78057,0.260191 -1.04077,0.520382 h -0.78056 l -1.04077,0.260191 h -1.04076 -1.04076 l -0.78058,-0.260191 h -1.04076 l -1.04077,-0.520382 -0.78057,-0.260191 -0.78057,-0.780571 -1.04076,-0.520382 -0.78058,-0.780572 -0.52037,-0.780572 -0.78058,-0.780573 -0.26019,-0.780571 -0.52038,-1.040764 -0.26019,-0.780571 -0.2602,-1.040764 -0.26019,-1.040763 v -0.780572 -1.040762 l 0.26019,-1.040765 0.2602,-0.780571 0.26019,-1.040763 0.52038,-0.780572 0.52038,-1.040763 0.52039,-0.780572 0.78057,-0.780573 0.78058,-0.780571 0.78056,-0.520382 1.04077,-0.520382 0.78057,-0.26019 1.04077,-0.260191 0.78056,-0.260191 1.04077,-0.260191 h 1.04076 1.04076 l 0.78058,0.260191 1.04075,0.260191 1.04077,0.260191 0.78057,0.520381 0.78058,0.520382 1.04075,0.520381"
     id="path3736" />
  <path
     style="fill:#999999;fill-opacity:1;fill-rule:evenodd;stroke:none;stroke-width:0.81373191"
     d="m 187.98785,57.632248 -1.30095,-0.26019 h -1.30095 l -1.04077,-0.52038 -1.30095,-0.26019 -1.04077,-0.52038 -1.04076,-0.78057 -1.04076,-0.78058 -0.78058,-0.78057 -1.04076,-1.040761 -0.78057,-0.780573 -0.52037,-1.040763 -0.52039,-1.300953 -0.52039,-1.040763 -0.26019,-1.300955 -0.26018,-1.300953 v -1.300954 -1.300954 l 0.26018,-1.300953 0.26019,-1.300953 0.52039,-1.040764 0.52039,-1.040762 0.52037,-1.040764 0.78057,-1.040762 1.04076,-1.040764 0.78058,-0.780572 1.04076,-0.780572 1.04076,-0.520381 1.04077,-0.780572 1.30095,-0.260191 1.04077,-0.520382 h 1.30095 1.30095 1.30096 1.30095 l 1.30096,0.520382 1.30095,0.260191 1.04076,0.780572 1.04077,0.520381 1.04076,0.780572 0.78058,0.780572 0.78057,1.040764 0.78057,1.040762 0.78056,1.040764 0.52039,1.040762 0.52038,1.040764 0.26019,1.300953 0.26019,1.300953 v 1.300954 1.300954 l -0.26019,1.300953 -0.26019,1.300955 -0.52038,1.040763 -0.52039,1.300953 -0.78056,1.040763 -0.78057,0.780573 -0.78057,1.040761 -0.78058,0.78057 -1.04076,0.78058 -1.04077,0.78057 -1.04076,0.52038 -1.30095,0.26019 -1.30096,0.52038 h -1.30095 z"
     id="path3738" />
  <path
     style="fill:none;stroke:#000000;stroke-width:0.26019078px;stroke-linecap:round;stroke-linejoin:round;stroke-miterlimit:4;stroke-dasharray:none;stroke-opacity:1"
     d="m 187.98785,57.632248 -1.30095,-0.26019 h -1.30095 l -1.04077,-0.52038 -1.30095,-0.26019 -1.04077,-0.52038 -1.04076,-0.78057 -1.04076,-0.78058 -0.78058,-0.78057 -1.04076,-1.040761 -0.78057,-0.780573 -0.52037,-1.040763 -0.52039,-1.300953 -0.52039,-1.040763 -0.26019,-1.300955 -0.26018,-1.300953 v -1.300954 -1.300954 l 0.26018,-1.300953 0.26019,-1.300953 0.52039,-1.040764 0.52039,-1.040762 0.52037,-1.040764 0.78057,-1.040762 1.04076,-1.040764 0.78058,-0.780572 1.04076,-0.780572 1.04076,-0.520381 1.04077,-0.780572 1.30095,-0.260191 1.04077,-0.520382 h 1.30095 1.30095 1.30096 1.30095 l 1.30096,0.520382 1.30095,0.260191 1.04076,0.780572 1.04077,0.520381 1.04076,0.780572 0.78058,0.780572 0.78057,1.040764 0.78057,1.040762 0.78056,1.040764 0.52039,1.040762 0.52038,1.040764 0.26019,1.300953 0.26019,1.300953 v 1.300954 1.300954 l -0.26019,1.300953 -0.26019,1.300955 -0.52038,1.040763 -0.52039,1.300953 -0.78056,1.040763 -0.78057,0.780573 -0.78057,1.040761 -0.78058,0.78057 -1.04076,0.78058 -1.04077,0.78057 -1.04076,0.52038 -1.30095,0.26019 -1.30096,0.52038 h -1.30095 l -1.30096,0.26019"
     id="path3740" />
  <path
     style="fill:#999999;fill-opacity:1;fill-rule:evenodd;stroke:none;stroke-width:0.81373191"
     d="m 111.23157,268.38676 h -1.30097 l -1.30094,-0.2602 -1.04076,-0.2602 -1.30096,-0.52038 -1.04076,-0.52037 -1.04076,-0.52039 -1.04077,-0.78057 -1.04077,-0.78057 -0.78057,-1.04077 -0.78056,-1.04076 -0.52039,-1.04076 -0.520367,-1.04077 -0.52039,-1.30095 -0.26019,-1.04076 -0.2602,-1.30095 v -1.30096 -1.30095 l 0.2602,-1.30096 0.26019,-1.30095 0.52039,-1.04077 0.520367,-1.30095 0.52039,-1.04076 0.78056,-0.78057 0.78057,-1.04076 1.04077,-0.78058 1.04077,-0.78057 1.04076,-0.78057 1.04076,-0.52038 1.30096,-0.2602 1.04076,-0.52037 h 1.30094 l 1.30097,-0.26019 1.30095,0.26019 h 1.30096 l 1.30094,0.52037 1.04077,0.2602 1.30096,0.52038 1.04075,0.78057 0.78058,0.78057 1.04076,0.78058 0.78058,1.04076 0.78057,0.78057 0.78057,1.04076 0.52038,1.30095 0.26019,1.04077 0.52038,1.30095 v 1.30096 l 0.2602,1.30095 -0.2602,1.30096 v 1.30095 l -0.52038,1.04076 -0.26019,1.30095 -0.52038,1.04077 -0.78057,1.04076 -0.78057,1.04076 -0.78058,1.04077 -1.04076,0.78057 -0.78058,0.78057 -1.04075,0.52039 -1.30096,0.52037 -1.04077,0.52038 -1.30094,0.2602 -1.30096,0.2602 z"
     id="path3742" />
  <path
     style="fill:none;stroke:#000000;stroke-width:0.26019078px;stroke-linecap:round;stroke-linejoin:round;stroke-miterlimit:4;stroke-dasharray:none;stroke-opacity:1"
     d="m 111.23157,268.38676 h -1.30097 l -1.30094,-0.2602 -1.04076,-0.2602 -1.30096,-0.52038 -1.04076,-0.52037 -1.04076,-0.52039 -1.04077,-0.78057 -1.04077,-0.78057 -0.78057,-1.04077 -0.78056,-1.04076 -0.52039,-1.04076 -0.520367,-1.04077 -0.52039,-1.30095 -0.26019,-1.04076 -0.2602,-1.30095 v -1.30096 -1.30095 l 0.2602,-1.30096 0.26019,-1.30095 0.52039,-1.04077 0.520367,-1.30095 0.52039,-1.04076 0.78056,-0.78057 0.78057,-1.04076 1.04077,-0.78058 1.04077,-0.78057 1.04076,-0.78057 1.04076,-0.52038 1.30096,-0.2602 1.04076,-0.52037 h 1.30094 l 1.30097,-0.26019 1.30095,0.26019 h 1.30096 l 1.30094,0.52037 1.04077,0.2602 1.30096,0.52038 1.04075,0.78057 0.78058,0.78057 1.04076,0.78058 0.78058,1.04076 0.78057,0.78057 0.78057,1.04076 0.52038,1.30095 0.26019,1.04077 0.52038,1.30095 v 1.30096 l 0.2602,1.30095 -0.2602,1.30096 v 1.30095 l -0.52038,1.04076 -0.26019,1.30095 -0.52038,1.04077 -0.78057,1.04076 -0.78057,1.04076 -0.78058,1.04077 -1.04076,0.78057 -0.78058,0.78057 -1.04075,0.52039 -1.30096,0.52037 -1.04077,0.52038 -1.30094,0.2602 -1.30096,0.2602 h -1.30095"
     id="path3744" />
  <path
     style="fill:#000000;fill-opacity:1;fill-rule:evenodd;stroke:none;stroke-width:0.81373191"
     d="m 201.25758,267.0858 4.42325,-2.08153 -108.239377,-232.090139 -4.16306,2.081525 z"
     id="path3746" />
  <path
     style="fill:#999999;stroke:none;stroke-width:0.26019078px;stroke-linecap:round;stroke-linejoin:round;stroke-miterlimit:4;stroke-dasharray:none;stroke-opacity:1"
     d="m 201.25758,267.0858 4.42325,-2.08153 L 97.441453,32.914131 93.278393,34.995656 201.25758,267.0858"
     id="path3748" />
  <path
     style="fill:#ffffff;fill-opacity:1;fill-rule:evenodd;stroke:none;stroke-width:0.81373191"
     d="m 207.24197,264.2237 h 1.82134 l 2.08153,0.52038 1.82133,0.78057 1.56114,1.04076 1.30096,1.56115 1.04076,1.56115 0.78057,1.82133 0.52039,2.08152 v 2.08154 l -0.52039,1.82132 -0.78057,1.82134 -1.04076,1.56114 -1.30096,1.30096 -1.82134,1.30095 -1.82133,0.78058 -2.08152,0.26018 h -2.08152 l -1.82134,-0.52037 -1.82135,-0.78059 -1.56113,-1.04075 -1.30096,-1.30096 -1.30095,-1.56114 -0.78057,-1.82134 -0.26019,-2.08152 v -2.08152 l 0.52038,-2.08154 0.78056,-1.82133 1.04077,-1.56115 1.30096,-1.30095 1.82133,-1.04076 1.82134,-0.78057 z"
     id="path3750" />
  <path
     style="fill:none;stroke:#000000;stroke-width:0.26019078px;stroke-linecap:round;stroke-linejoin:round;stroke-miterlimit:4;stroke-dasharray:none;stroke-opacity:1"
     d="m 207.24197,264.2237 h 1.82134 l 2.08153,0.52038 1.82133,0.78057 1.56114,1.04076 1.30096,1.56115 1.04076,1.56115 0.78057,1.82133 0.52039,2.08152 v 2.08154 l -0.52039,1.82132 -0.78057,1.82134 -1.04076,1.56114 -1.30096,1.30096 -1.82134,1.30095 -1.82133,0.78058 -2.08152,0.26018 h -2.08152 l -1.82134,-0.52037 -1.82135,-0.78059 -1.56113,-1.04075 -1.30096,-1.30096 -1.30095,-1.56114 -0.78057,-1.82134 -0.26019,-2.08152 v -2.08152 l 0.52038,-2.08154 0.78056,-1.82133 1.04077,-1.56115 1.30096,-1.30095 1.82133,-1.04076 1.82134,-0.78057 2.08152,-0.52038"
     id="path3752" />
  <path
     style="fill:#ffffff;fill-opacity:1;fill-rule:evenodd;stroke:none;stroke-width:0.81373191"
     d="m 90.676493,16.001733 h 2.08154 l 1.82133,0.26019 1.82133,0.780573 1.56114,1.300953 1.56116,1.300954 1.040757,1.561144 0.78056,2.081525 0.26019,1.821336 v 2.081526 l -0.26019,2.081526 -0.78056,1.821335 -1.300957,1.561145 -1.30096,1.300953 -1.56114,1.040763 -2.08152,0.780572 -1.82133,0.520382 h -2.08154 l -2.08152,-0.520382 -1.82134,-0.780572 -1.56115,-1.040763 -1.30095,-1.561144 -1.04076,-1.561145 -0.78058,-1.821335 -0.26019,-2.081526 v -2.081526 l 0.26019,-1.821335 0.78058,-1.821335 1.04076,-1.821336 1.56114,-1.300953 1.56115,-1.040762 1.82133,-0.780573 z"
     id="path3754" />
  <path
     style="fill:none;stroke:#000000;stroke-width:0.26019078px;stroke-linecap:round;stroke-linejoin:round;stroke-miterlimit:4;stroke-dasharray:none;stroke-opacity:1"
     d="m 90.676493,16.001733 h 2.08154 l 1.82133,0.26019 1.82133,0.780573 1.56114,1.300953 1.56116,1.300954 1.040757,1.561144 0.78056,2.081525 0.26019,1.821336 v 2.081526 l -0.26019,2.081526 -0.78056,1.821335 -1.300957,1.561145 -1.30096,1.300953 -1.56114,1.040763 -2.08152,0.780572 -1.82133,0.520382 h -2.08154 l -2.08152,-0.520382 -1.82134,-0.780572 -1.56115,-1.040763 -1.30095,-1.561144 -1.04076,-1.561145 -0.78058,-1.821335 -0.26019,-2.081526 v -2.081526 l 0.26019,-1.821335 0.78058,-1.821335 1.04076,-1.821336 1.56114,-1.300953 1.56115,-1.040762 1.82133,-0.780573 2.08153,-0.26019"
     id="path3756" />
  <path
     style="fill:#999999;fill-opacity:1;fill-rule:evenodd;stroke:none;stroke-width:0.81373191"
     d="m 111.23157,57.632248 -0.78058,0.78057 -1.30095,0.78058 -0.78057,0.78057 -1.30096,0.52038 -1.04076,0.26019 -1.30095,0.26019 -1.30096,0.26019 h -1.30096 -1.04075 l -1.300957,-0.26019 -1.30096,-0.26019 -1.30095,-0.26019 -1.04075,-0.52038 -1.04078,-0.78057 -1.04076,-0.78058 -1.04077,-0.78057 -0.78056,-1.04076 -0.78058,-1.04076 -0.52037,-1.04077 -0.78058,-1.04076 -0.26019,-1.300953 -0.2602,-1.300954 -0.26018,-1.040762 V 48.525575 47.22462 l 0.26018,-1.040762 0.2602,-1.300954 0.26019,-1.040763 0.78058,-1.300953 0.52037,-1.040763 0.78058,-1.040763 0.78056,-1.040764 1.04077,-0.780571 1.04076,-0.780573 1.04078,-0.780571 1.04075,-0.520382 1.30095,-0.260191 1.30096,-0.260191 1.300957,-0.260191 h 1.04075 1.30096 l 1.30096,0.260191 1.30095,0.260191 1.04076,0.260191 1.30096,0.520382 0.78057,0.780571 1.30095,0.780573 0.78058,0.780571 1.04076,1.040764 0.78058,1.040763 0.52038,1.040763 0.52037,1.300953 0.52039,1.040763 0.26018,1.300954 v 1.040762 l 0.26019,1.300955 -0.26019,1.300954 v 1.040762 l -0.26018,1.300954 -0.52039,1.300953 -0.52037,1.04076 -0.52038,1.04077 -0.78058,1.04076 z"
     id="path3758" />
  <path
     style="fill:none;stroke:#000000;stroke-width:0.26019078px;stroke-linecap:round;stroke-linejoin:round;stroke-miterlimit:4;stroke-dasharray:none;stroke-opacity:1"
     d="m 111.23157,57.632248 -0.78058,0.78057 -1.30095,0.78058 -0.78057,0.78057 -1.30096,0.52038 -1.04076,0.26019 -1.30095,0.26019 -1.30096,0.26019 h -1.30096 -1.04075 l -1.300957,-0.26019 -1.30096,-0.26019 -1.30095,-0.26019 -1.04075,-0.52038 -1.04078,-0.78057 -1.04076,-0.78058 -1.04077,-0.78057 -0.78056,-1.04076 -0.78058,-1.04076 -0.52037,-1.04077 -0.78058,-1.04076 -0.26019,-1.300953 -0.2602,-1.300954 -0.26018,-1.040762 V 48.525575 47.22462 l 0.26018,-1.040762 0.2602,-1.300954 0.26019,-1.040763 0.78058,-1.300953 0.52037,-1.040763 0.78058,-1.040763 0.78056,-1.040764 1.04077,-0.780571 1.04076,-0.780573 1.04078,-0.780571 1.04075,-0.520382 1.30095,-0.260191 1.30096,-0.260191 1.300957,-0.260191 h 1.04075 1.30096 l 1.30096,0.260191 1.30095,0.260191 1.04076,0.260191 1.30096,0.520382 0.78057,0.780571 1.30095,0.780573 0.78058,0.780571 1.04076,1.040764 0.78058,1.040763 0.52038,1.040763 0.52037,1.300953 0.52039,1.040763 0.26018,1.300954 v 1.040762 l 0.26019,1.300955 -0.26019,1.300954 v 1.040762 l -0.26018,1.300954 -0.52039,1.300953 -0.52037,1.04076 -0.52038,1.04077 -0.78058,1.04076 -1.04076,1.04076"
     id="path3760" />
  <path
     style="fill:#999999;fill-opacity:1;fill-rule:evenodd;stroke:none;stroke-width:0.81373191"
     d="m 206.20121,261.10142 -1.04076,0.78056 -1.04077,0.78057 -1.04077,0.78058 -1.04075,0.52037 -1.30096,0.2602 -1.30096,0.26019 -1.04075,0.26019 h -1.30095 -1.30097 l -1.30095,-0.26019 -1.04076,-0.26019 -1.30095,-0.2602 -1.04077,-0.52037 -1.04075,-0.78058 -1.30096,-0.78057 -0.78058,-0.78056 -1.04076,-1.04078 -0.78058,-1.04076 -0.52037,-1.04077 -0.52038,-1.04075 -0.52039,-1.30096 -0.26019,-1.04077 v -1.30095 l -0.26019,-1.30095 0.26019,-1.30096 v -1.30095 l 0.26019,-1.04076 0.52039,-1.30095 0.52038,-1.04077 0.52037,-1.04076 0.78058,-1.30095 1.04076,-0.78057 0.78058,-0.78058 1.30096,-0.78057 1.04075,-0.78056 1.04077,-0.52039 1.30095,-0.26019 1.04076,-0.2602 1.30095,-0.26018 h 1.30097 1.30095 l 1.04075,0.26018 1.30096,0.2602 1.30096,0.26019 1.04075,0.52039 1.04077,0.78056 1.04077,0.78057 1.04076,0.78058 0.78058,0.78057 0.78056,1.30095 0.52038,1.04076 0.78058,1.04077 0.26019,1.30095 0.26019,1.04076 0.26019,1.30095 v 1.30096 1.30095 l -0.26019,1.30095 -0.26019,1.04077 -0.26019,1.30096 -0.78058,1.04075 -0.52038,1.04077 -0.78056,1.04076 z"
     id="path3762" />
  <path
     style="fill:none;stroke:#000000;stroke-width:0.26019078px;stroke-linecap:round;stroke-linejoin:round;stroke-miterlimit:4;stroke-dasharray:none;stroke-opacity:1"
     d="m 206.20121,261.10142 -1.04076,0.78056 -1.04077,0.78057 -1.04077,0.78058 -1.04075,0.52037 -1.30096,0.2602 -1.30096,0.26019 -1.04075,0.26019 h -1.30095 -1.30097 l -1.30095,-0.26019 -1.04076,-0.26019 -1.30095,-0.2602 -1.04077,-0.52037 -1.04075,-0.78058 -1.30096,-0.78057 -0.78058,-0.78056 -1.04076,-1.04078 -0.78058,-1.04076 -0.52037,-1.04077 -0.52038,-1.04075 -0.52039,-1.30096 -0.26019,-1.04077 v -1.30095 l -0.26019,-1.30095 0.26019,-1.30096 v -1.30095 l 0.26019,-1.04076 0.52039,-1.30095 0.52038,-1.04077 0.52037,-1.04076 0.78058,-1.30095 1.04076,-0.78057 0.78058,-0.78058 1.30096,-0.78057 1.04075,-0.78056 1.04077,-0.52039 1.30095,-0.26019 1.04076,-0.2602 1.30095,-0.26018 h 1.30097 1.30095 l 1.04075,0.26018 1.30096,0.2602 1.30096,0.26019 1.04075,0.52039 1.04077,0.78056 1.04077,0.78057 1.04076,0.78058 0.78058,0.78057 0.78056,1.30095 0.52038,1.04076 0.78058,1.04077 0.26019,1.30095 0.26019,1.04076 0.26019,1.30095 v 1.30096 1.30095 l -0.26019,1.30095 -0.26019,1.04077 -0.26019,1.30096 -0.78058,1.04075 -0.52038,1.04077 -0.78056,1.04076 -0.78058,1.04078"
     id="path3764" />
  <path
     style="fill:#000000;fill-opacity:1;fill-rule:evenodd;stroke:none;stroke-width:0.81373191"
     d="m 268.90719,196.31392 1.82133,-4.42325 -240.936672,-87.68427 -1.561145,4.68343 z"
     id="path3766" />
  <path
     style="fill:#999999;stroke:none;stroke-width:0.26019078px;stroke-linecap:round;stroke-linejoin:round;stroke-miterlimit:4;stroke-dasharray:none;stroke-opacity:1"
     d="m 268.90719,196.31392 1.82133,-4.42325 -240.936672,-87.68427 -1.561145,4.68343 240.676487,87.42409"
     id="path3768" />
  <path
     style="fill:#ffffff;fill-opacity:1;fill-rule:evenodd;stroke:none;stroke-width:0.81373191"
     d="m 270.98872,190.32953 0.78057,-0.78057 0.78058,-0.52038 0.78056,-0.78057 0.78058,-0.52039 1.04076,-0.26019 0.78057,-0.2602 1.04077,-0.26018 1.04077,-0.26019 h 0.78057 1.04075 l 1.04077,0.26019 0.78057,0.26018 1.04077,0.2602 1.04075,0.52038 0.78058,0.52037 0.78057,0.5204 0.78058,0.78056 0.78057,0.78058 0.52038,0.78057 0.52038,1.04076 0.26019,0.78058 0.26019,0.78057 0.26019,1.04076 0.26019,1.04076 v 1.04076 0.78058 l -0.26019,1.04077 -0.26019,1.04075 -0.26019,0.78057 -0.52038,1.04076 -0.52038,0.78058 -0.52038,1.04077 -0.78057,0.78056 -0.78058,0.52039 -0.78057,0.52038 -0.78058,0.52038 -1.04075,0.52038 -0.78058,0.26019 -1.04076,0.26019 h -0.78058 -1.04075 -1.04077 -1.04077 l -0.78057,-0.26019 -1.04076,-0.52037 -0.78057,-0.2602 -1.04076,-0.52038 -0.78058,-0.78057 -0.78058,-0.52038 -0.78057,-0.78058 -0.52037,-1.04075 -0.52038,-0.78058 -0.26019,-0.78058 -0.52039,-1.04076 v -1.04076 l -0.26019,-0.78057 v -1.04076 -1.04078 l 0.26019,-1.04075 0.2602,-0.78057 0.26019,-1.04076 0.52038,-0.78058 0.52038,-1.04076 z"
     id="path3770" />
  <path
     style="fill:none;stroke:#000000;stroke-width:0.26019078px;stroke-linecap:round;stroke-linejoin:round;stroke-miterlimit:4;stroke-dasharray:none;stroke-opacity:1"
     d="m 270.98872,190.32953 0.78057,-0.78057 0.78058,-0.52038 0.78056,-0.78057 0.78058,-0.52039 1.04076,-0.26019 0.78057,-0.2602 1.04077,-0.26018 1.04077,-0.26019 h 0.78057 1.04075 l 1.04077,0.26019 0.78057,0.26018 1.04077,0.2602 1.04075,0.52038 0.78058,0.52037 0.78057,0.5204 0.78058,0.78056 0.78057,0.78058 0.52038,0.78057 0.52038,1.04076 0.26019,0.78058 0.26019,0.78057 0.26019,1.04076 0.26019,1.04076 v 1.04076 0.78058 l -0.26019,1.04077 -0.26019,1.04075 -0.26019,0.78057 -0.52038,1.04076 -0.52038,0.78058 -0.52038,1.04077 -0.78057,0.78056 -0.78058,0.52039 -0.78057,0.52038 -0.78058,0.52038 -1.04075,0.52038 -0.78058,0.26019 -1.04076,0.26019 h -0.78058 -1.04075 -1.04077 -1.04077 l -0.78057,-0.26019 -1.04076,-0.52037 -0.78057,-0.2602 -1.04076,-0.52038 -0.78058,-0.78057 -0.78058,-0.52038 -0.78057,-0.78058 -0.52037,-1.04075 -0.52038,-0.78058 -0.26019,-0.78058 -0.52039,-1.04076 v -1.04076 l -0.26019,-0.78057 v -1.04076 -1.04078 l 0.26019,-1.04075 0.2602,-0.78057 0.26019,-1.04076 0.52038,-0.78058 0.52038,-1.04076 0.52038,-0.78057"
     id="path3772" />
  <path
     style="fill:#ffffff;fill-opacity:1;fill-rule:evenodd;stroke:none;stroke-width:0.81373191"
     d="m 13.139636,97.181248 0.780572,-0.78058 0.780572,-0.78057 0.780574,-0.52038 0.780572,-0.52038 0.780572,-0.52039 1.040763,-0.26019 0.780573,-0.26018 h 1.040762 1.040764 1.040763 0.780572 l 1.040764,0.26018 1.040764,0.52039 0.780572,0.26019 0.780572,0.52038 1.040763,0.78057 0.780573,0.52038 0.520381,0.78058 0.780572,1.04076 0.260192,0.780572 0.520382,0.78057 0.26019,1.04077 0.260191,1.04075 0.260191,1.04077 v 0.78057 1.04076 l -0.260191,1.04078 -0.260191,0.78056 -0.26019,1.04076 -0.520382,0.78057 -0.520382,1.04077 -0.520382,0.78057 -0.780572,0.78057 -0.780573,0.52039 -0.780572,0.78057 -1.040763,0.52038 -0.780572,0.2602 -1.040763,0.26017 -0.780574,0.2602 -1.040762,0.26019 h -1.040764 -0.780573 l -1.040762,-0.26019 -1.040763,-0.2602 -0.780573,-0.26017 -1.040763,-0.5204 -0.780573,-0.52038 -0.780572,-0.52037 -0.780572,-0.78058 -0.780573,-0.78057 -0.520382,-0.78057 -0.520382,-0.78058 -0.520381,-1.04076 -0.26019,-0.78057 -0.26019,-1.04076 v -1.04076 -0.78058 -1.04076 -1.04076 l 0.26019,-1.04077 0.520382,-0.78057 0.260189,-1.040772 0.520382,-0.78057 z"
     id="path3774" />
  <path
     style="fill:none;stroke:#000000;stroke-width:0.26019078px;stroke-linecap:round;stroke-linejoin:round;stroke-miterlimit:4;stroke-dasharray:none;stroke-opacity:1"
     d="m 13.139636,97.181248 0.780572,-0.78058 0.780572,-0.78057 0.780574,-0.52038 0.780572,-0.52038 0.780572,-0.52039 1.040763,-0.26019 0.780573,-0.26018 h 1.040762 1.040764 1.040763 0.780572 l 1.040764,0.26018 1.040764,0.52039 0.780572,0.26019 0.780572,0.52038 1.040763,0.78057 0.780573,0.52038 0.520381,0.78058 0.780572,1.04076 0.260192,0.780572 0.520382,0.78057 0.26019,1.04077 0.260191,1.04075 0.260191,1.04077 v 0.78057 1.04076 l -0.260191,1.04078 -0.260191,0.78056 -0.26019,1.04076 -0.520382,0.78057 -0.520382,1.04077 -0.520382,0.78057 -0.780572,0.78057 -0.780573,0.52039 -0.780572,0.78057 -1.040763,0.52038 -0.780572,0.2602 -1.040763,0.26017 -0.780574,0.2602 -1.040762,0.26019 h -1.040764 -0.780573 l -1.040762,-0.26019 -1.040763,-0.2602 -0.780573,-0.26017 -1.040763,-0.5204 -0.780573,-0.52038 -0.780572,-0.52037 -0.780572,-0.78058 -0.780573,-0.78057 -0.520382,-0.78057 -0.520382,-0.78058 -0.520381,-1.04076 -0.26019,-0.78057 -0.26019,-1.04076 v -1.04076 -0.78058 -1.04076 -1.04076 l 0.26019,-1.04077 0.520382,-0.78057 0.260189,-1.040772 0.520382,-0.78057 0.780573,-0.78056"
     id="path3776" />
  <path
     style="fill:#999999;fill-opacity:1;fill-rule:evenodd;stroke:none;stroke-width:0.81373191"
     d="m 57.111882,112.01211 v 1.30095 l -0.260191,1.30096 -0.26019,1.30095 -0.520382,1.04077 -0.520382,1.04076 -0.520382,1.30095 -0.780572,0.78058 -1.040762,1.04076 -0.780574,0.78057 -1.040762,0.78058 -1.040764,0.52037 -1.040763,0.78058 -1.300954,0.26019 -1.040763,0.52038 h -1.300954 -1.300955 -1.300953 -1.300954 l -1.300955,-0.52038 -1.300953,-0.26019 -1.040764,-0.78058 -1.040762,-0.52037 -1.040764,-0.78058 -0.780573,-0.78057 -0.780572,-1.04076 -0.780572,-0.78058 -0.780573,-1.30095 -0.520381,-1.04076 -0.520382,-1.04077 -0.26019,-1.30095 -0.260192,-1.30096 v -1.30095 -1.30095 l 0.260192,-1.30095 0.26019,-1.30095 0.520382,-1.04077 0.520381,-1.04077 0.780573,-1.30095 0.780572,-0.78057 0.780572,-1.04076 0.780573,-0.78057 1.040764,-0.78058 1.040762,-0.78057 1.040764,-0.52038 1.300953,-0.26019 1.300955,-0.52038 h 1.300954 l 1.300953,-0.26019 1.300955,0.26019 h 1.300954 l 1.040763,0.52038 1.300954,0.26019 1.040763,0.52038 1.040764,0.78057 1.040762,0.78058 0.780574,0.78057 1.040762,1.04076 0.780572,0.78057 0.520382,1.30095 0.520382,1.04077 0.520382,1.04077 0.26019,1.30095 0.260191,1.30095 z"
     id="path3778" />
  <path
     style="fill:none;stroke:#000000;stroke-width:0.26019078px;stroke-linecap:round;stroke-linejoin:round;stroke-miterlimit:4;stroke-dasharray:none;stroke-opacity:1"
     d="m 57.111882,112.01211 v 1.30095 l -0.260191,1.30096 -0.26019,1.30095 -0.520382,1.04077 -0.520382,1.04076 -0.520382,1.30095 -0.780572,0.78058 -1.040762,1.04076 -0.780574,0.78057 -1.040762,0.78058 -1.040764,0.52037 -1.040763,0.78058 -1.300954,0.26019 -1.040763,0.52038 h -1.300954 -1.300955 -1.300953 -1.300954 l -1.300955,-0.52038 -1.300953,-0.26019 -1.040764,-0.78058 -1.040762,-0.52037 -1.040764,-0.78058 -0.780573,-0.78057 -0.780572,-1.04076 -0.780572,-0.78058 -0.780573,-1.30095 -0.520381,-1.04076 -0.520382,-1.04077 -0.26019,-1.30095 -0.260192,-1.30096 v -1.30095 -1.30095 l 0.260192,-1.30095 0.26019,-1.30095 0.520382,-1.04077 0.520381,-1.04077 0.780573,-1.30095 0.780572,-0.78057 0.780572,-1.04076 0.780573,-0.78057 1.040764,-0.78058 1.040762,-0.78057 1.040764,-0.52038 1.300953,-0.26019 1.300955,-0.52038 h 1.300954 l 1.300953,-0.26019 1.300955,0.26019 h 1.300954 l 1.040763,0.52038 1.300954,0.26019 1.040763,0.52038 1.040764,0.78057 1.040762,0.78058 0.780574,0.78057 1.040762,1.04076 0.780572,0.78057 0.520382,1.30095 0.520382,1.04077 0.520382,1.04077 0.26019,1.30095 0.260191,1.30095 v 1.30095"
     id="path3780" />
  <path
     style="fill:#999999;fill-opacity:1;fill-rule:evenodd;stroke:none;stroke-width:0.81373191"
     d="m 268.12662,188.76838 v 1.30095 l -0.26019,1.30096 -0.52038,1.30095 -0.2602,1.04077 -0.52038,1.04076 -0.78056,1.30095 -0.78058,0.78058 -0.78057,1.04076 -1.04077,0.78057 -0.78057,0.78057 -1.04076,0.78058 -1.30096,0.52037 -1.04076,0.2602 -1.30094,0.52038 h -1.30097 l -1.30095,0.26018 -1.30096,-0.26018 h -1.30094 l -1.04077,-0.52038 -1.30096,-0.2602 -1.04075,-0.52037 -1.04077,-0.78058 -1.04076,-0.78057 -1.04077,-0.78057 -0.78057,-1.04076 -0.78057,-0.78058 -0.52038,-1.30095 -0.52039,-1.04076 -0.52038,-1.04077 -0.26019,-1.30095 -0.26019,-1.30096 v -1.30095 -1.30095 l 0.26019,-1.30096 0.26019,-1.30095 0.52038,-1.04076 0.52039,-1.04077 0.52038,-1.30095 0.78057,-0.78057 0.78057,-1.04076 1.04077,-0.78058 1.04076,-0.78057 1.04077,-0.52038 1.04075,-0.78057 1.30096,-0.26019 1.04077,-0.52038 h 1.30094 1.30096 1.30095 1.30097 l 1.30094,0.52038 1.04076,0.26019 1.30096,0.78057 1.04076,0.52038 0.78057,0.78057 1.04077,0.78058 0.78057,1.04076 0.78058,0.78057 0.78056,1.30095 0.52038,1.04077 0.2602,1.04076 0.52038,1.30095 0.26019,1.30096 z"
     id="path3782" />
  <path
     style="fill:none;stroke:#000000;stroke-width:0.26019078px;stroke-linecap:round;stroke-linejoin:round;stroke-miterlimit:4;stroke-dasharray:none;stroke-opacity:1"
     d="m 268.12662,188.76838 v 1.30095 l -0.26019,1.30096 -0.52038,1.30095 -0.2602,1.04077 -0.52038,1.04076 -0.78056,1.30095 -0.78058,0.78058 -0.78057,1.04076 -1.04077,0.78057 -0.78057,0.78057 -1.04076,0.78058 -1.30096,0.52037 -1.04076,0.2602 -1.30094,0.52038 h -1.30097 l -1.30095,0.26018 -1.30096,-0.26018 h -1.30094 l -1.04077,-0.52038 -1.30096,-0.2602 -1.04075,-0.52037 -1.04077,-0.78058 -1.04076,-0.78057 -1.04077,-0.78057 -0.78057,-1.04076 -0.78057,-0.78058 -0.52038,-1.30095 -0.52039,-1.04076 -0.52038,-1.04077 -0.26019,-1.30095 -0.26019,-1.30096 v -1.30095 -1.30095 l 0.26019,-1.30096 0.26019,-1.30095 0.52038,-1.04076 0.52039,-1.04077 0.52038,-1.30095 0.78057,-0.78057 0.78057,-1.04076 1.04077,-0.78058 1.04076,-0.78057 1.04077,-0.52038 1.04075,-0.78057 1.30096,-0.26019 1.04077,-0.52038 h 1.30094 1.30096 1.30095 1.30097 l 1.30094,0.52038 1.04076,0.26019 1.30096,0.78057 1.04076,0.52038 0.78057,0.78057 1.04077,0.78058 0.78057,1.04076 0.78058,0.78057 0.78056,1.30095 0.52038,1.04077 0.2602,1.04076 0.52038,1.30095 0.26019,1.30096 v 1.30095"
     id="path3784" />
  <path
     style="fill:#000000;fill-opacity:1;fill-rule:evenodd;stroke:none;stroke-width:0.81373191"
     d="m 266.82566,98.742378 -2.08152,-4.42323 -232.090193,108.239342 1.821335,4.16305 z"
     id="path3786" />
  <path
     style="fill:#999999;stroke:none;stroke-width:0.26019078px;stroke-linecap:round;stroke-linejoin:round;stroke-miterlimit:4;stroke-dasharray:none;stroke-opacity:1"
     d="M 266.82566,98.742378 264.74414,94.319148 32.653947,202.55849 34.475282,206.72154 266.82566,98.742378"
     id="path3788" />
  <path
     style="fill:#ffffff;fill-opacity:1;fill-rule:evenodd;stroke:none;stroke-width:0.81373191"
     d="m 263.96357,92.757998 v -1.82133 l 0.26019,-2.08153 0.78057,-1.82133 1.30096,-1.56115 1.30095,-1.30096 1.56115,-1.04076 2.08152,-0.78057 1.82134,-0.52038 h 2.08152 l 2.08153,0.52038 1.82134,0.78057 1.56114,1.04076 1.30095,1.30096 1.04077,1.82134 0.78056,1.82133 0.52039,2.08154 v 2.08151 l -0.52039,1.82134 -0.78056,1.82134 -1.04077,1.56115 -1.56115,1.561132 -1.56113,1.04076 -1.82134,0.78057 -2.08153,0.2602 h -2.08152 l -1.82134,-0.52038 -1.82133,-0.78057 -1.82134,-1.04077 -1.30095,-1.300942 -1.04077,-1.82135 -0.78057,-1.82133 z"
     id="path3790" />
  <path
     style="fill:none;stroke:#000000;stroke-width:0.26019078px;stroke-linecap:round;stroke-linejoin:round;stroke-miterlimit:4;stroke-dasharray:none;stroke-opacity:1"
     d="m 263.96357,92.757998 v -1.82133 l 0.26019,-2.08153 0.78057,-1.82133 1.30096,-1.56115 1.30095,-1.30096 1.56115,-1.04076 2.08152,-0.78057 1.82134,-0.52038 h 2.08152 l 2.08153,0.52038 1.82134,0.78057 1.56114,1.04076 1.30095,1.30096 1.04077,1.82134 0.78056,1.82133 0.52039,2.08154 v 2.08151 l -0.52039,1.82134 -0.78056,1.82134 -1.04077,1.56115 -1.56115,1.561132 -1.56113,1.04076 -1.82134,0.78057 -2.08153,0.2602 h -2.08152 l -1.82134,-0.52038 -1.82133,-0.78057 -1.82134,-1.04077 -1.30095,-1.300942 -1.04077,-1.82135 -0.78057,-1.82133 -0.26019,-2.08153"
     id="path3792" />
  <path
     style="fill:#ffffff;fill-opacity:1;fill-rule:evenodd;stroke:none;stroke-width:0.81373191"
     d="m 15.481354,209.32345 v -2.08153 l 0.520381,-1.82133 0.780573,-1.82133 1.040763,-1.56115 1.561144,-1.56114 1.561145,-1.04077 1.821335,-0.78057 2.081528,-0.26019 h 2.081526 l 1.821335,0.26019 1.821336,0.78057 1.561145,1.30095 1.561145,1.30096 1.040762,1.56115 0.780573,2.08151 0.260191,1.82135 v 2.08153 l -0.520382,2.08151 -0.780572,1.82135 -1.040764,1.56114 -1.300953,1.30094 -1.561145,1.04078 -1.821336,0.78057 -2.081527,0.26019 h -2.081525 l -2.081527,-0.26019 -1.821336,-0.78057 -1.561145,-1.04078 -1.300953,-1.56113 -1.040763,-1.56115 -0.780573,-1.82133 z"
     id="path3794" />
  <path
     style="fill:none;stroke:#000000;stroke-width:0.26019078px;stroke-linecap:round;stroke-linejoin:round;stroke-miterlimit:4;stroke-dasharray:none;stroke-opacity:1"
     d="m 15.481354,209.32345 v -2.08153 l 0.520381,-1.82133 0.780573,-1.82133 1.040763,-1.56115 1.561144,-1.56114 1.561145,-1.04077 1.821335,-0.78057 2.081528,-0.26019 h 2.081526 l 1.821335,0.26019 1.821336,0.78057 1.561145,1.30095 1.561145,1.30096 1.040762,1.56115 0.780573,2.08151 0.260191,1.82135 v 2.08153 l -0.520382,2.08151 -0.780572,1.82135 -1.040764,1.56114 -1.300953,1.30094 -1.561145,1.04078 -1.821336,0.78057 -2.081527,0.26019 h -2.081525 l -2.081527,-0.26019 -1.821336,-0.78057 -1.561145,-1.04078 -1.300953,-1.56113 -1.040763,-1.56115 -0.780573,-1.82133 -0.520381,-2.08153"
     id="path3796" />
  <path
     style="fill:#999999;fill-opacity:1;fill-rule:evenodd;stroke:none;stroke-width:0.81373191"
     d="m 57.372073,188.76838 0.780572,0.78058 0.780573,1.30095 0.520382,0.78058 0.520382,1.30095 0.52038,1.04076 0.260192,1.30095 0.26019,1.30096 v 1.30095 1.04077 l -0.26019,1.30095 -0.260192,1.30095 -0.52038,1.30096 -0.520382,1.04076 -0.520382,1.04076 -0.780573,1.04076 -0.780572,1.04076 -1.040764,0.78058 -1.040763,0.78057 -1.040763,0.52037 -1.300954,0.78058 -1.040763,0.2602 -1.300954,0.26018 -1.300954,0.26019 h -1.040764 -1.300953 l -1.300954,-0.26019 -1.040763,-0.26018 -1.300955,-0.2602 -1.040763,-0.78058 -1.300955,-0.52037 -1.040762,-0.78057 -0.780572,-0.78058 -1.040764,-1.04076 -0.780572,-1.04076 -0.520382,-1.04076 -0.520382,-1.04076 -0.520381,-1.30096 -0.260191,-1.30095 -0.260191,-1.30095 v -1.04077 -1.30095 l 0.260191,-1.30096 0.260191,-1.30095 0.520381,-1.04076 0.520382,-1.30095 0.520382,-0.78058 0.780572,-1.30095 1.040764,-0.78058 0.780572,-1.04076 1.040762,-0.78057 1.300955,-0.52038 1.040763,-0.52038 1.300955,-0.52039 1.040763,-0.26018 h 1.300954 l 1.300953,-0.2602 1.040764,0.2602 h 1.300954 l 1.300954,0.26018 1.040763,0.52039 1.300954,0.52038 1.040763,0.52038 1.040763,0.78057 z"
     id="path3798" />
  <path
     style="fill:none;stroke:#000000;stroke-width:0.26019078px;stroke-linecap:round;stroke-linejoin:round;stroke-miterlimit:4;stroke-dasharray:none;stroke-opacity:1"
     d="m 57.372073,188.76838 0.780572,0.78058 0.780573,1.30095 0.520382,0.78058 0.520382,1.30095 0.52038,1.04076 0.260192,1.30095 0.26019,1.30096 v 1.30095 1.04077 l -0.26019,1.30095 -0.260192,1.30095 -0.52038,1.30096 -0.520382,1.04076 -0.520382,1.04076 -0.780573,1.04076 -0.780572,1.04076 -1.040764,0.78058 -1.040763,0.78057 -1.040763,0.52037 -1.300954,0.78058 -1.040763,0.2602 -1.300954,0.26018 -1.300954,0.26019 h -1.040764 -1.300953 l -1.300954,-0.26019 -1.040763,-0.26018 -1.300955,-0.2602 -1.040763,-0.78058 -1.300955,-0.52037 -1.040762,-0.78057 -0.780572,-0.78058 -1.040764,-1.04076 -0.780572,-1.04076 -0.520382,-1.04076 -0.520382,-1.04076 -0.520381,-1.30096 -0.260191,-1.30095 -0.260191,-1.30095 v -1.04077 -1.30095 l 0.260191,-1.30096 0.260191,-1.30095 0.520381,-1.04076 0.520382,-1.30095 0.520382,-0.78058 0.780572,-1.30095 1.040764,-0.78058 0.780572,-1.04076 1.040762,-0.78057 1.300955,-0.52038 1.040763,-0.52038 1.300955,-0.52039 1.040763,-0.26018 h 1.300954 l 1.300953,-0.2602 1.040764,0.2602 h 1.300954 l 1.300954,0.26018 1.040763,0.52039 1.300954,0.52038 1.040763,0.52038 1.040763,0.78057 1.040764,1.04076"
     id="path3800" />
  <path
     style="fill:#000000;fill-opacity:1;fill-rule:evenodd;stroke:none;stroke-width:0.81373191"
     d="m 260.84128,93.798758 0.78057,1.04077 0.78057,1.04076 0.52039,1.04077 0.52037,1.04075 0.52039,1.300962 0.26019,1.30095 0.26019,1.30095 v 1.04077 1.30096 l -0.26019,1.30095 -0.26019,1.30095 -0.52039,1.04076 -0.52037,1.30096 -0.52039,0.78057 -0.78057,1.30095 -0.78057,0.78057 -1.04077,1.04078 -1.04076,0.78056 -1.04075,0.52038 -1.30097,0.52039 -1.04076,0.52038 -1.30095,0.26019 h -1.30095 l -1.30096,0.26018 -1.04077,-0.26018 h -1.30094 l -1.30096,-0.26019 -1.04077,-0.52038 -1.30095,-0.52039 -1.04076,-0.52038 -1.04077,-0.78056 -1.04076,-1.04078 -0.78058,-0.78057 -0.78056,-1.30095 -0.52038,-0.78057 -0.52039,-1.30096 -0.52037,-1.04076 -0.2602,-1.30095 -0.26019,-1.30095 v -1.30096 -1.04077 l 0.26019,-1.30095 0.2602,-1.30095 0.52037,-1.300962 0.52039,-1.04075 0.52038,-1.04077 0.78056,-1.04076 0.78058,-1.04077 1.04076,-0.78057 1.04077,-0.78057 1.04076,-0.52038 1.30095,-0.78057 1.04077,-0.2602 1.30096,-0.26019 1.30094,-0.26019 h 1.04077 1.30096 l 1.30095,0.26019 1.30095,0.26019 1.04076,0.2602 1.30097,0.78057 1.04075,0.52038 1.04076,0.78057 z"
     id="path3802" />
  <path
     style="fill:#999999;stroke:none;stroke-width:0.26019078px;stroke-linecap:round;stroke-linejoin:round;stroke-miterlimit:4;stroke-dasharray:none;stroke-opacity:1"
     d="m 260.84128,93.798758 0.78057,1.04077 0.78057,1.04076 0.52039,1.04077 0.52037,1.04075 0.52039,1.300962 0.26019,1.30095 0.26019,1.30095 v 1.04077 1.30096 l -0.26019,1.30095 -0.26019,1.30095 -0.52039,1.04076 -0.52037,1.30096 -0.52039,0.78057 -0.78057,1.30095 -0.78057,0.78057 -1.04077,1.04078 -1.04076,0.78056 -1.04075,0.52038 -1.30097,0.52039 -1.04076,0.52038 -1.30095,0.26019 h -1.30095 l -1.30096,0.26018 -1.04077,-0.26018 h -1.30094 l -1.30096,-0.26019 -1.04077,-0.52038 -1.30095,-0.52039 -1.04076,-0.52038 -1.04077,-0.78056 -1.04076,-1.04078 -0.78058,-0.78057 -0.78056,-1.30095 -0.52038,-0.78057 -0.52039,-1.30096 -0.52037,-1.04076 -0.2602,-1.30095 -0.26019,-1.30095 v -1.30096 -1.04077 l 0.26019,-1.30095 0.2602,-1.30095 0.52037,-1.300962 0.52039,-1.04075 0.52038,-1.04077 0.78056,-1.04076 0.78058,-1.04077 1.04076,-0.78057 1.04077,-0.78057 1.04076,-0.52038 1.30095,-0.78057 1.04077,-0.2602 1.30096,-0.26019 1.30094,-0.26019 h 1.04077 1.30096 l 1.30095,0.26019 1.30095,0.26019 1.04076,0.2602 1.30097,0.78057 1.04075,0.52038 1.04076,0.78057 1.04077,0.78057"
     id="path3804" />
  <path
     style="fill:#ffffff;fill-opacity:1;fill-rule:evenodd;stroke:none;stroke-width:0.81373191"
     d="m 150,168.21331 h -1.82134 l -1.82133,-0.52037 -1.82134,-0.2602 -1.82133,-0.78057 -1.56115,-0.78057 -1.56115,-1.04077 -1.30094,-1.04075 -1.56116,-1.30096 -1.04076,-1.30095 -1.30095,-1.30096 -0.78058,-1.56115 -0.78057,-1.56114 -0.78057,-1.82134 -0.2602,-1.82132 -0.52037,-1.82134 v -1.82134 -1.82134 l 0.52037,-2.08152 0.2602,-1.82134 0.78057,-1.56114 0.78057,-1.56114 0.78058,-1.56115 1.30095,-1.56114 1.04076,-1.30096 1.56116,-1.30095 1.30094,-1.04077 1.56115,-1.04075 1.56115,-0.78057 1.82133,-0.52039 1.82134,-0.52038 1.82133,-0.26019 H 150 h 1.82134 l 2.08151,0.26019 1.56115,0.52038 1.82133,0.52039 1.56115,0.78057 1.56115,1.04075 1.56114,1.04077 1.30096,1.30095 1.30096,1.30096 1.04075,1.56114 0.78058,1.56115 1.04076,1.56114 0.52038,1.56114 0.52039,1.82134 0.26018,2.08152 v 1.82134 1.82134 l -0.26018,1.82134 -0.52039,1.82132 -0.52038,1.82134 -1.04076,1.56114 -0.78058,1.56115 -1.04075,1.30096 -1.30096,1.30095 -1.30096,1.30096 -1.56114,1.04075 -1.56115,1.04077 -1.56115,0.78057 -1.82133,0.78057 -1.56115,0.2602 -2.08151,0.52037 z"
     id="path3806" />
  <path
     style="fill:none;stroke:#000000;stroke-width:0.26019078px;stroke-linecap:round;stroke-linejoin:round;stroke-miterlimit:4;stroke-dasharray:none;stroke-opacity:1"
     d="m 150,168.21331 h -1.82134 l -1.82133,-0.52037 -1.82134,-0.2602 -1.82133,-0.78057 -1.56115,-0.78057 -1.56115,-1.04077 -1.30094,-1.04075 -1.56116,-1.30096 -1.04076,-1.30095 -1.30095,-1.30096 -0.78058,-1.56115 -0.78057,-1.56114 -0.78057,-1.82134 -0.2602,-1.82132 -0.52037,-1.82134 v -1.82134 -1.82134 l 0.52037,-2.08152 0.2602,-1.82134 0.78057,-1.56114 0.78057,-1.56114 0.78058,-1.56115 1.30095,-1.56114 1.04076,-1.30096 1.56116,-1.30095 1.30094,-1.04077 1.56115,-1.04075 1.56115,-0.78057 1.82133,-0.52039 1.82134,-0.52038 1.82133,-0.26019 H 150 h 1.82134 l 2.08151,0.26019 1.56115,0.52038 1.82133,0.52039 1.56115,0.78057 1.56115,1.04075 1.56114,1.04077 1.30096,1.30095 1.30096,1.30096 1.04075,1.56114 0.78058,1.56115 1.04076,1.56114 0.52038,1.56114 0.52039,1.82134 0.26018,2.08152 v 1.82134 1.82134 l -0.26018,1.82134 -0.52039,1.82132 -0.52038,1.82134 -1.04076,1.56114 -0.78058,1.56115 -1.04075,1.30096 -1.30096,1.30095 -1.30096,1.30096 -1.56114,1.04075 -1.56115,1.04077 -1.56115,0.78057 -1.82133,0.78057 -1.56115,0.2602 -2.08151,0.52037 H 150"
     id="path3808" />
</svg>
